<svg xmlns="http://www.w3.org/2000/svg" width="531" height="420" fill="none"><rect width="526" height="388" x="2.5" y="2.5" stroke="url(#a)" stroke-width="5" rx="32.5"/><rect width="524" height="388" x="3.5" y="2.5" fill="#434549" stroke="#16181A" rx="34.5"/><path fill="url(#b)" d="M4 37h523v45H4z"/><path fill="url(#c)" d="M4 324h523v31c0 19.33-15.67 35-35 35H39c-19.33 0-35-15.67-35-35z"/><g filter="url(#d)"><path fill="url(#e)" d="M352 387.764v-3.712c0-2.382 1.671-4.44 4.019-4.84 30.781-5.251 75.393-3.148 95.001.015 2.334.377 3.98 2.422 3.98 4.787v4.434c0 2.495-1.838 4.612-4.314 4.92-33.827 4.211-69.59 2.968-94.512-.715-2.417-.357-4.174-2.446-4.174-4.889"/><path stroke="#000" d="M352 387.764v-3.712c0-2.382 1.671-4.44 4.019-4.84 30.781-5.251 75.393-3.148 95.001.015 2.334.377 3.98 2.422 3.98 4.787v4.434c0 2.495-1.838 4.612-4.314 4.92-33.827 4.211-69.59 2.968-94.512-.715-2.417-.357-4.174-2.446-4.174-4.889Z"/></g><rect width="181" height="170" x="61" y="218" fill="#000" rx="26"/><circle cx="64.5" cy="104.5" r="4" fill="#07070B" stroke="#575960"/><circle cx="304.5" cy="104.5" r="4" fill="#07070B" stroke="#575960"/><circle cx="184.5" cy="104.5" r="4" fill="#07070B" stroke="#575960"/><circle cx="424.5" cy="104.5" r="4" fill="#07070B" stroke="#575960"/><circle cx="124.5" cy="104.5" r="4" fill="#07070B" stroke="#575960"/><circle cx="364.5" cy="104.5" r="4" fill="#07070B" stroke="#575960"/><circle cx="244.5" cy="104.5" r="4" fill="#07070B" stroke="#575960"/><circle cx="94.5" cy="104.5" r="4" fill="#07070B" stroke="#575960"/><circle cx="334.5" cy="104.5" r="4" fill="#07070B" stroke="#575960"/><circle cx="214.5" cy="104.5" r="4" fill="#07070B" stroke="#575960"/><circle cx="454.5" cy="104.5" r="4" fill="#07070B" stroke="#575960"/><circle cx="154.5" cy="104.5" r="4" fill="#07070B" stroke="#575960"/><circle cx="394.5" cy="104.5" r="4" fill="#07070B" stroke="#575960"/><circle cx="274.5" cy="104.5" r="4" fill="#07070B" stroke="#575960"/><circle cx="79.5" cy="104.5" r="4" fill="#07070B" stroke="#575960"/><circle cx="319.5" cy="104.5" r="4" fill="#07070B" stroke="#575960"/><circle cx="199.5" cy="104.5" r="4" fill="#07070B" stroke="#575960"/><circle cx="439.5" cy="104.5" r="4" fill="#07070B" stroke="#575960"/><circle cx="139.5" cy="104.5" r="4" fill="#07070B" stroke="#575960"/><circle cx="379.5" cy="104.5" r="4" fill="#07070B" stroke="#575960"/><circle cx="259.5" cy="104.5" r="4" fill="#07070B" stroke="#575960"/><circle cx="109.5" cy="104.5" r="4" fill="#07070B" stroke="#575960"/><circle cx="349.5" cy="104.5" r="4" fill="#07070B" stroke="#575960"/><circle cx="229.5" cy="104.5" r="4" fill="#07070B" stroke="#575960"/><circle cx="469.5" cy="104.5" r="4" fill="#07070B" stroke="#575960"/><circle cx="169.5" cy="104.5" r="4" fill="#07070B" stroke="#575960"/><circle cx="409.5" cy="104.5" r="4" fill="#07070B" stroke="#575960"/><circle cx="289.5" cy="104.5" r="4" fill="#07070B" stroke="#575960"/><circle cx="64.5" cy="119.5" r="4" fill="#07070B" stroke="#575960"/><circle cx="304.5" cy="119.5" r="4" fill="#07070B" stroke="#575960"/><circle cx="184.5" cy="119.5" r="4" fill="#07070B" stroke="#575960"/><circle cx="424.5" cy="119.5" r="4" fill="#07070B" stroke="#575960"/><circle cx="124.5" cy="119.5" r="4" fill="#07070B" stroke="#575960"/><circle cx="364.5" cy="119.5" r="4" fill="#07070B" stroke="#575960"/><circle cx="244.5" cy="119.5" r="4" fill="#07070B" stroke="#575960"/><circle cx="94.5" cy="119.5" r="4" fill="#07070B" stroke="#575960"/><circle cx="334.5" cy="119.5" r="4" fill="#07070B" stroke="#575960"/><circle cx="214.5" cy="119.5" r="4" fill="#07070B" stroke="#575960"/><circle cx="454.5" cy="119.5" r="4" fill="#07070B" stroke="#575960"/><circle cx="154.5" cy="119.5" r="4" fill="#07070B" stroke="#575960"/><circle cx="394.5" cy="119.5" r="4" fill="#07070B" stroke="#575960"/><circle cx="274.5" cy="119.5" r="4" fill="#07070B" stroke="#575960"/><circle cx="79.5" cy="119.5" r="4" fill="#07070B" stroke="#575960"/><circle cx="319.5" cy="119.5" r="4" fill="#07070B" stroke="#575960"/><circle cx="199.5" cy="119.5" r="4" fill="#07070B" stroke="#575960"/><circle cx="439.5" cy="119.5" r="4" fill="#07070B" stroke="#575960"/><circle cx="139.5" cy="119.5" r="4" fill="#07070B" stroke="#575960"/><circle cx="379.5" cy="119.5" r="4" fill="#07070B" stroke="#575960"/><circle cx="259.5" cy="119.5" r="4" fill="#07070B" stroke="#575960"/><circle cx="109.5" cy="119.5" r="4" fill="#07070B" stroke="#575960"/><circle cx="349.5" cy="119.5" r="4" fill="#07070B" stroke="#575960"/><circle cx="229.5" cy="119.5" r="4" fill="#07070B" stroke="#575960"/><circle cx="469.5" cy="119.5" r="4" fill="#07070B" stroke="#575960"/><circle cx="169.5" cy="119.5" r="4" fill="#07070B" stroke="#575960"/><circle cx="409.5" cy="119.5" r="4" fill="#07070B" stroke="#575960"/><circle cx="289.5" cy="119.5" r="4" fill="#07070B" stroke="#575960"/><circle cx="64.5" cy="134.5" r="4" fill="#07070B" stroke="#575960"/><circle cx="304.5" cy="134.5" r="4" fill="#07070B" stroke="#575960"/><circle cx="184.5" cy="134.5" r="4" fill="#07070B" stroke="#575960"/><circle cx="424.5" cy="134.5" r="4" fill="#07070B" stroke="#575960"/><circle cx="124.5" cy="134.5" r="4" fill="#07070B" stroke="#575960"/><circle cx="364.5" cy="134.5" r="4" fill="#07070B" stroke="#575960"/><circle cx="244.5" cy="134.5" r="4" fill="#07070B" stroke="#575960"/><circle cx="94.5" cy="134.5" r="4" fill="#07070B" stroke="#575960"/><circle cx="334.5" cy="134.5" r="4" fill="#07070B" stroke="#575960"/><circle cx="214.5" cy="134.5" r="4" fill="#07070B" stroke="#575960"/><circle cx="454.5" cy="134.5" r="4" fill="#07070B" stroke="#575960"/><circle cx="154.5" cy="134.5" r="4" fill="#07070B" stroke="#575960"/><circle cx="394.5" cy="134.5" r="4" fill="#07070B" stroke="#575960"/><circle cx="274.5" cy="134.5" r="4" fill="#07070B" stroke="#575960"/><circle cx="79.5" cy="134.5" r="4" fill="#07070B" stroke="#575960"/><circle cx="319.5" cy="134.5" r="4" fill="#07070B" stroke="#575960"/><circle cx="199.5" cy="134.5" r="4" fill="#07070B" stroke="#575960"/><circle cx="439.5" cy="134.5" r="4" fill="#07070B" stroke="#575960"/><circle cx="139.5" cy="134.5" r="4" fill="#07070B" stroke="#575960"/><circle cx="379.5" cy="134.5" r="4" fill="#07070B" stroke="#575960"/><circle cx="259.5" cy="134.5" r="4" fill="#07070B" stroke="#575960"/><circle cx="109.5" cy="134.5" r="4" fill="#07070B" stroke="#575960"/><circle cx="349.5" cy="134.5" r="4" fill="#07070B" stroke="#575960"/><circle cx="229.5" cy="134.5" r="4" fill="#07070B" stroke="#575960"/><circle cx="469.5" cy="134.5" r="4" fill="#07070B" stroke="#575960"/><circle cx="169.5" cy="134.5" r="4" fill="#07070B" stroke="#575960"/><circle cx="409.5" cy="134.5" r="4" fill="#07070B" stroke="#575960"/><circle cx="289.5" cy="134.5" r="4" fill="#07070B" stroke="#575960"/><circle cx="64.5" cy="149.5" r="4" fill="#07070B" stroke="#575960"/><circle cx="304.5" cy="149.5" r="4" fill="#07070B" stroke="#575960"/><circle cx="184.5" cy="149.5" r="4" fill="#07070B" stroke="#575960"/><circle cx="424.5" cy="149.5" r="4" fill="#07070B" stroke="#575960"/><circle cx="124.5" cy="149.5" r="4" fill="#07070B" stroke="#575960"/><circle cx="364.5" cy="149.5" r="4" fill="#07070B" stroke="#575960"/><circle cx="244.5" cy="149.5" r="4" fill="#07070B" stroke="#575960"/><circle cx="94.5" cy="149.5" r="4" fill="#07070B" stroke="#575960"/><circle cx="334.5" cy="149.5" r="4" fill="#07070B" stroke="#575960"/><circle cx="214.5" cy="149.5" r="4" fill="#07070B" stroke="#575960"/><circle cx="454.5" cy="149.5" r="4" fill="#07070B" stroke="#575960"/><circle cx="154.5" cy="149.5" r="4" fill="#07070B" stroke="#575960"/><circle cx="394.5" cy="149.5" r="4" fill="#07070B" stroke="#575960"/><circle cx="274.5" cy="149.5" r="4" fill="#07070B" stroke="#575960"/><circle cx="79.5" cy="149.5" r="4" fill="#07070B" stroke="#575960"/><circle cx="319.5" cy="149.5" r="4" fill="#07070B" stroke="#575960"/><circle cx="199.5" cy="149.5" r="4" fill="#07070B" stroke="#575960"/><circle cx="439.5" cy="149.5" r="4" fill="#07070B" stroke="#575960"/><circle cx="139.5" cy="149.5" r="4" fill="#07070B" stroke="#575960"/><circle cx="379.5" cy="149.5" r="4" fill="#07070B" stroke="#575960"/><circle cx="259.5" cy="149.5" r="4" fill="#07070B" stroke="#575960"/><circle cx="109.5" cy="149.5" r="4" fill="#07070B" stroke="#575960"/><circle cx="349.5" cy="149.5" r="4" fill="#07070B" stroke="#575960"/><circle cx="229.5" cy="149.5" r="4" fill="#07070B" stroke="#575960"/><circle cx="469.5" cy="149.5" r="4" fill="#07070B" stroke="#575960"/><circle cx="169.5" cy="149.5" r="4" fill="#07070B" stroke="#575960"/><circle cx="409.5" cy="149.5" r="4" fill="#07070B" stroke="#575960"/><circle cx="289.5" cy="149.5" r="4" fill="#07070B" stroke="#575960"/><circle cx="64.5" cy="164.5" r="4" fill="#07070B" stroke="#575960"/><circle cx="304.5" cy="164.5" r="4" fill="#07070B" stroke="#575960"/><circle cx="184.5" cy="164.5" r="4" fill="#07070B" stroke="#575960"/><circle cx="424.5" cy="164.5" r="4" fill="#07070B" stroke="#575960"/><circle cx="124.5" cy="164.5" r="4" fill="#07070B" stroke="#575960"/><circle cx="364.5" cy="164.5" r="4" fill="#07070B" stroke="#575960"/><circle cx="244.5" cy="164.5" r="4" fill="#07070B" stroke="#575960"/><circle cx="94.5" cy="164.5" r="4" fill="#07070B" stroke="#575960"/><circle cx="334.5" cy="164.5" r="4" fill="#07070B" stroke="#575960"/><circle cx="214.5" cy="164.5" r="4" fill="#07070B" stroke="#575960"/><circle cx="454.5" cy="164.5" r="4" fill="#07070B" stroke="#575960"/><circle cx="154.5" cy="164.5" r="4" fill="#07070B" stroke="#575960"/><circle cx="394.5" cy="164.5" r="4" fill="#07070B" stroke="#575960"/><circle cx="274.5" cy="164.5" r="4" fill="#07070B" stroke="#575960"/><circle cx="79.5" cy="164.5" r="4" fill="#07070B" stroke="#575960"/><circle cx="319.5" cy="164.5" r="4" fill="#07070B" stroke="#575960"/><circle cx="199.5" cy="164.5" r="4" fill="#07070B" stroke="#575960"/><circle cx="439.5" cy="164.5" r="4" fill="#07070B" stroke="#575960"/><circle cx="139.5" cy="164.5" r="4" fill="#07070B" stroke="#575960"/><circle cx="379.5" cy="164.5" r="4" fill="#07070B" stroke="#575960"/><circle cx="259.5" cy="164.5" r="4" fill="#07070B" stroke="#575960"/><circle cx="109.5" cy="164.5" r="4" fill="#07070B" stroke="#575960"/><circle cx="349.5" cy="164.5" r="4" fill="#07070B" stroke="#575960"/><circle cx="229.5" cy="164.5" r="4" fill="#07070B" stroke="#575960"/><circle cx="469.5" cy="164.5" r="4" fill="#07070B" stroke="#575960"/><circle cx="169.5" cy="164.5" r="4" fill="#07070B" stroke="#575960"/><circle cx="409.5" cy="164.5" r="4" fill="#07070B" stroke="#575960"/><circle cx="289.5" cy="164.5" r="4" fill="#07070B" stroke="#575960"/><path stroke="#16181A" d="M4 36.5h524"/><g filter="url(#f)"><rect width="155" height="91" x="76" y="284" fill="#0E0D0E" rx="27"/><rect width="151" height="87" x="78" y="286" stroke="url(#g)" stroke-width="4" rx="25"/></g><rect width="149" height="85" x="79" y="287" stroke="url(#h)" stroke-width="2" rx="26"/><circle cx="153.201" cy="329.199" r="29.415" fill="url(#i)" stroke="url(#j)" stroke-width=".478" opacity=".76"/><circle cx="153.2" cy="329.2" r="21.045" fill="url(#k)" stroke="#0C0E0D" stroke-width="1.913" opacity=".75" transform="rotate(-53.144 153.2 329.2)"/><circle cx="153.547" cy="329.547" r="13.006" fill="#0E0F0F" stroke="#0C0E0D" stroke-width="1.913" transform="rotate(-53.144 153.547 329.547)"/><circle cx="153.092" cy="329.092" r="7.923" fill="#181F28" transform="rotate(-53.144 153.092 329.092)"/><circle cx="153.197" cy="329.199" r="20.758" stroke="url(#l)" stroke-width=".574" opacity=".39"/><g filter="url(#m)"><circle cx="153.5" cy="329.5" r="1.5" fill="#0774DA"/></g><g filter="url(#n)"><circle cx="152.549" cy="329.549" r="4.678" fill="#0362C4" transform="rotate(-53.144 152.549 329.549)"/></g><circle cx="208" cy="352" r="4.7" fill="#212329" stroke="url(#o)" stroke-width=".6" opacity=".48"/><path fill="url(#p)" stroke="#000" d="M352 408.202v-15.359c0-2.084 1.288-3.962 3.268-4.612 31.214-10.254 77.196-6.066 96.532.026 1.96.618 3.2 2.473 3.2 4.529v16.726c0 2.277-1.537 4.274-3.753 4.797-34.29 8.096-70.645 5.673-95.73-1.387-2.105-.593-3.517-2.533-3.517-4.72Z"/><defs><linearGradient id="a" x1="74.775" x2="456.225" y1="0" y2="393" gradientUnits="userSpaceOnUse"><stop stop-color="#7B7F83"/><stop offset="1" stop-color="#53575C"/></linearGradient><linearGradient id="b" x1="265.5" x2="265.5" y1="37" y2="82" gradientUnits="userSpaceOnUse"><stop stop-color="#434549"/><stop offset=".51" stop-color="#6C6C6E"/><stop offset="1" stop-color="#45454B"/></linearGradient><linearGradient id="c" x1="265.5" x2="265.5" y1="324" y2="390" gradientUnits="userSpaceOnUse"><stop stop-color="#434549"/><stop offset=".51" stop-color="#16181B"/><stop offset="1" stop-color="#45454B"/></linearGradient><linearGradient id="e" x1="352" x2="454.866" y1="385.376" y2="380.972" gradientUnits="userSpaceOnUse"><stop offset=".548" stop-color="#15171A"/><stop offset=".861" stop-color="#15171A"/></linearGradient><linearGradient id="g" x1="76" x2="231" y1="290.819" y2="368.181" gradientUnits="userSpaceOnUse"><stop stop-color="#3F4247"/><stop offset="1" stop-color="#292B2F"/></linearGradient><linearGradient id="h" x1="78" x2="227.855" y1="292.52" y2="368.733" gradientUnits="userSpaceOnUse"><stop stop-color="#25292C"/><stop offset="1" stop-color="#292B2F"/></linearGradient><linearGradient id="i" x1="134.069" x2="175.516" y1="354.549" y2="299.545" gradientUnits="userSpaceOnUse"><stop stop-color="#58595E"/><stop offset="1" stop-color="#060708"/></linearGradient><linearGradient id="j" x1="132.099" x2="174.303" y1="358.853" y2="299.545" gradientUnits="userSpaceOnUse"><stop stop-color="#636363"/><stop offset="1" stop-color="#9E9E9E"/></linearGradient><linearGradient id="k" x1="139.005" x2="169.756" y1="348.008" y2="307.198" gradientUnits="userSpaceOnUse"><stop stop-color="#58595E"/><stop offset="1" stop-color="#060708"/></linearGradient><linearGradient id="l" x1="153.197" x2="153.197" y1="308.154" y2="350.244" gradientUnits="userSpaceOnUse"><stop stop-color="#6C6C6C"/><stop offset="1" stop-color="#545454"/></linearGradient><linearGradient id="o" x1="212.5" x2="206" y1="341" y2="359.5" gradientUnits="userSpaceOnUse"><stop stop-color="#585B61"/><stop offset=".486" stop-color="#929A9F"/><stop offset="1" stop-color="#929A9F"/></linearGradient><linearGradient id="p" x1="352" x2="455" y1="399.506" y2="397.146" gradientUnits="userSpaceOnUse"><stop offset=".548" stop-color="#15171A"/><stop offset=".736" stop-color="#737373"/><stop offset=".861" stop-color="#15171A"/></linearGradient><filter id="d" width="126.6" height="43.6" x="340.2" y="364.216" color-interpolation-filters="sRGB" filterUnits="userSpaceOnUse"><feFlood flood-opacity="0" result="BackgroundImageFix"/><feBlend in="SourceGraphic" in2="BackgroundImageFix" result="shape"/><feGaussianBlur result="effect1_foregroundBlur_3260_1999" stdDeviation="5.65"/></filter><filter id="f" width="183.2" height="119.2" x="61.9" y="262.9" color-interpolation-filters="sRGB" filterUnits="userSpaceOnUse"><feFlood flood-opacity="0" result="BackgroundImageFix"/><feColorMatrix in="SourceAlpha" result="hardAlpha" values="0 0 0 0 0 0 0 0 0 0 0 0 0 0 0 0 0 0 127 0"/><feOffset dy="-7"/><feGaussianBlur stdDeviation="7.05"/><feComposite in2="hardAlpha" operator="out"/><feColorMatrix values="0 0 0 0 0.0823529 0 0 0 0 0.0941176 0 0 0 0 0.109804 0 0 0 1 0"/><feBlend in2="BackgroundImageFix" result="effect1_dropShadow_3260_1999"/><feBlend in="SourceGraphic" in2="effect1_dropShadow_3260_1999" result="shape"/></filter><filter id="m" width="8.2" height="8.2" x="149.4" y="325.4" color-interpolation-filters="sRGB" filterUnits="userSpaceOnUse"><feFlood flood-opacity="0" result="BackgroundImageFix"/><feBlend in="SourceGraphic" in2="BackgroundImageFix" result="shape"/><feGaussianBlur result="effect1_foregroundBlur_3260_1999" stdDeviation="1.3"/></filter><filter id="n" width="26.383" height="26.383" x="139.357" y="316.357" color-interpolation-filters="sRGB" filterUnits="userSpaceOnUse"><feFlood flood-opacity="0" result="BackgroundImageFix"/><feBlend in="SourceGraphic" in2="BackgroundImageFix" result="shape"/><feGaussianBlur result="effect1_foregroundBlur_3260_1999" stdDeviation="4.257"/></filter></defs></svg>